<svg xmlns="http://www.w3.org/2000/svg" xmlns:xlink="http://www.w3.org/1999/xlink" version="1.1" x="0px" y="0px" viewBox="0 0 96 96" style="enable-background:new 0 0 96 96;" xml:space="preserve"><style type="text/css">
	.st0{fill-rule:evenodd;clip-rule:evenodd;}
</style><path d="M80.663,16.17C71.938,7.445,60.338,2.64,48,2.64S24.062,7.445,15.337,16.17C6.612,24.894,1.808,36.494,1.808,48.832  c0,10.28,3.305,20.009,9.557,28.137c6.054,7.87,14.625,13.674,24.133,16.341c0.696,0.195,1.418-0.21,1.614-0.906l8.394-29.859  c0.094-0.334,0.051-0.692-0.119-0.995c-0.17-0.303-0.453-0.526-0.788-0.619c-5.395-1.513-9.163-6.489-9.163-12.099  c0-6.928,5.637-12.565,12.565-12.565s12.565,5.637,12.565,12.565c0,5.61-3.768,10.585-9.163,12.099  c-0.334,0.094-0.618,0.317-0.788,0.619c-0.17,0.303-0.213,0.661-0.119,0.995l8.394,29.859c0.162,0.578,0.688,0.955,1.26,0.955  c0.117,0,0.236-0.016,0.354-0.049c9.509-2.668,18.079-8.471,24.133-16.341c6.252-8.128,9.557-17.858,9.557-28.137  C94.192,36.494,89.388,24.894,80.663,16.17z M53.355,63.043c5.847-2.205,9.828-7.873,9.828-14.211  c0-8.372-6.811-15.183-15.183-15.183S32.817,40.46,32.817,48.832c0,6.338,3.981,12.006,9.828,14.211l-1.648,5.864  c-1.154-0.717-2.492-1.129-3.873-1.17c-2.089-0.062-4.068,0.735-5.578,2.244c-0.144,0.145-0.313,0.166-0.401,0.166  c-0.088,0-0.257-0.022-0.401-0.166l-4.04-4.04c-0.221-0.221-0.221-0.581,0-0.803c2.222-2.222,2.854-5.408,1.65-8.316  c-1.204-2.907-3.904-4.713-7.046-4.713c-0.313,0-0.568-0.255-0.568-0.568v-5.714c0-0.313,0.255-0.568,0.568-0.568  c3.142,0,5.842-1.806,7.046-4.713c1.204-2.907,0.572-6.094-1.65-8.316c-0.221-0.221-0.221-0.581,0-0.803l4.04-4.04  c0.111-0.111,0.256-0.166,0.401-0.166c0.145,0,0.291,0.055,0.401,0.166c2.222,2.222,5.408,2.854,8.316,1.65  c2.907-1.204,4.713-3.904,4.713-7.046c0-0.313,0.255-0.568,0.568-0.568h5.714c0.313,0,0.568,0.255,0.568,0.568  c0,3.142,1.806,5.842,4.713,7.046c2.907,1.204,6.094,0.572,8.315-1.65c0.222-0.221,0.582-0.221,0.803,0l4.04,4.04  c0.221,0.221,0.221,0.582,0,0.803c-2.222,2.222-2.854,5.408-1.65,8.316c1.204,2.907,3.904,4.713,7.046,4.713  c0.313,0,0.568,0.255,0.568,0.568v5.714c0,0.313-0.255,0.568-0.568,0.568c-3.142,0-5.842,1.806-7.046,4.713  c-1.204,2.907-0.572,6.094,1.65,8.316c0.221,0.221,0.221,0.581,0,0.803l-4.04,4.04c-0.221,0.221-0.581,0.221-0.803,0  c-1.507-1.507-3.484-2.301-5.57-2.241c-1.383,0.041-2.723,0.453-3.879,1.171L53.355,63.043z M61.05,90.418l-5.291-18.823  c0.885-0.758,2.02-1.202,3.202-1.237c0.961-0.028,2.371,0.205,3.641,1.475c1.242,1.242,3.263,1.242,4.505,0l4.04-4.04  c1.242-1.242,1.242-3.263,0-4.505c-1.744-1.744-1.702-3.965-1.082-5.462c0.62-1.497,2.161-3.097,4.627-3.097  c1.757,0,3.186-1.429,3.186-3.186v-5.714c0-1.757-1.429-3.186-3.186-3.186c-2.466,0-4.007-1.6-4.627-3.097  c-0.62-1.497-0.662-3.718,1.082-5.462c1.242-1.242,1.242-3.263,0-4.505l-4.04-4.04c-1.242-1.242-3.263-1.242-4.505,0  c-1.744,1.744-3.965,1.702-5.462,1.082c-1.497-0.62-3.097-2.161-3.097-4.627c0-1.757-1.429-3.186-3.186-3.186h-5.714  c-1.757,0-3.186,1.429-3.186,3.186c0,2.466-1.6,4.007-3.097,4.627c-1.497,0.62-3.718,0.661-5.462-1.082  c-1.242-1.242-3.263-1.242-4.505,0l-4.04,4.04c-1.242,1.242-1.242,3.263,0,4.505c1.744,1.744,1.702,3.965,1.082,5.462  c-0.62,1.497-2.161,3.097-4.627,3.097c-1.757,0-3.186,1.429-3.186,3.186v5.714c0,1.757,1.429,3.186,3.186,3.186  c2.466,0,4.007,1.6,4.627,3.097c0.62,1.497,0.662,3.718-1.082,5.462c-1.242,1.242-1.242,3.263,0,4.505l4.04,4.04  c0.602,0.602,1.402,0.933,2.253,0.933c0.851,0,1.651-0.331,2.253-0.933c1.274-1.274,2.686-1.507,3.648-1.479  c1.18,0.035,2.313,0.478,3.196,1.236L34.95,90.418C16.913,84.763,4.426,67.849,4.426,48.832C4.426,24.806,23.973,5.258,48,5.258  s43.574,19.547,43.574,43.574C91.574,67.849,79.087,84.763,61.05,90.418z"  stroke="#75caca" stroke-width=".2" fill="url(#grad1)"/>
<defs>
<radialGradient id="grad1" cx="50%" cy="50%" r="50%" fx="50%" fy="50%">
	<stop offset="0%" style="stop-color: white; stop-opacity: 1" />
	<stop offset="33%" style="stop-color: #75caca; stop-opacity: 1" />
	<stop offset="66%" style="stop-color: #4db8b6; stop-opacity: 1" />
	<stop offset="100%" style="stop-color: #75caca; stop-opacity: 1" />
</radialGradient>
</defs>
</svg>
