<svg xmlns="http://www.w3.org/2000/svg" viewBox="0 0 128 128"><path fill="#2088ff" d="m35.73,3.75c-11.09,0 -20.12,9.03 -20.12,20.12c0,9.71 6.93,17.84 16.09,19.72l0,28.57c0,8.88 7.3,16.09 16.1,16.09l0.14,0c0.98,6.81 6.87,12.07 13.94,12.07c7.76,0 14.09,-6.33 14.09,-14.09s-6.33,-14.08 -14.09,-14.08c-7.07,0 -12.96,5.26 -13.94,12.07l-0.14,0c-6.59,0 -12.07,-5.4 -12.07,-12.07l0,-20.29a13.97,13.97 0 0 0 9.99,4.19l2.23,0c0.98,6.81 6.87,12.07 13.94,12.07c7.08,0 12.96,-5.26 13.94,-12.07l8.35,0c0.98,6.81 6.87,12.07 13.94,12.07c7.76,0 14.09,-6.33 14.09,-14.08c0,-7.76 -6.33,-14.09 -14.09,-14.09c-7.07,0 -12.96,5.27 -13.94,12.07l-8.34,0c-0.99,-6.81 -6.87,-12.07 -13.94,-12.07s-12.96,5.27 -13.94,12.07l-2.23,0c-4.86,0 -8.9,-3.46 -9.8,-8.05c11,-0.11 19.93,-9.09 19.93,-20.12c0,-11.09 -9.03,-20.12 -20.12,-20.12zm0,4.02a16.06,16.06 0 0 1 16.09,16.1a16.06,16.06 0 0 1 -16.09,16.09a16.06,16.06 0 0 1 -16.1,-16.09a16.06,16.06 0 0 1 16.1,-16.1zm-3.94,5.7c-2.1,0.01 -4.11,1.69 -4.11,3.99l0,12.86c0,3.05 3.55,5.03 6.14,3.42l10.29,-6.38c2.46,-1.52 2.47,-5.28 0.02,-6.83l-10.28,-6.48a3.79,3.79 0 0 0 -2.06,-0.58zm-0.09,3.99l10.29,6.47l-10.29,6.38l0,-12.86zm30.18,26.53a10.03,10.03 0 0 1 10.07,10.07a10.03,10.03 0 0 1 -10.07,10.06a10.03,10.03 0 0 1 -10.06,-10.06a10.03,10.03 0 0 1 10.06,-10.07zm36.22,0a10.03,10.03 0 0 1 10.07,10.07a10.03,10.03 0 0 1 -10.07,10.06a10.03,10.03 0 0 1 -10.06,-10.06a10.03,10.03 0 0 1 10.06,-10.07zm-32.11,5.25a2.01,2.01 0 0 0 -1.43,0.59l-4.75,4.75l-1.58,-1.57a2.01,2.01 0 0 0 -2.84,0a2.01,2.01 0 0 0 0,2.84l3,2.99a2.01,2.01 0 0 0 2.84,0l6.18,-6.16a2.01,2.01 0 0 0 0,-2.84a2.01,2.01 0 0 0 -1.42,-0.59zm36.22,0a2.01,2.01 0 0 0 -1.43,0.59l-4.75,4.75l-1.58,-1.57a2.01,2.01 0 0 0 -2.84,0a2.01,2.01 0 0 0 0,2.84l3,2.99a2.01,2.01 0 0 0 2.84,0l6.18,-6.16a2.01,2.01 0 0 0 0,-2.84a2.01,2.01 0 0 0 -1.42,-0.59zm-40.32,26.94a10.03,10.03 0 0 1 10.07,10.06a10.03,10.03 0 0 1 -10.07,10.07a10.03,10.03 0 0 1 -10.06,-10.07a10.03,10.03 0 0 1 10.06,-10.06zm-4.02,7.04c-1.65,0 -3.02,1.37 -3.02,3.02c0,1.66 1.37,3.02 3.02,3.02s3.02,-1.36 3.02,-3.02c0,-1.65 -1.37,-3.02 -3.02,-3.02zm8.05,0c-1.66,0 -3.02,1.37 -3.02,3.02c0,1.66 1.36,3.02 3.02,3.02s3.02,-1.36 3.02,-3.02c0,-1.65 -1.37,-3.02 -3.02,-3.02zm-8.05,2.01c0.57,0 1,0.44 1,1c0,0.57 -0.44,1.01 -1,1.01c-0.57,0 -1,-0.44 -1,-1.01c0,-0.57 0.44,-1 1,-1zm8.05,0c0.57,0 1,0.44 1,1c0,0.57 -0.44,1.01 -1,1.01c-0.57,0 -1.01,-0.44 -1.01,-1.01c0,-0.57 0.45,-1 1.01,-1z"/><path fill="#79b8ff" d="m98.1,71.85c-7.08,0 -12.96,5.27 -13.94,12.1a2.01,2.01 0 0 0 -0.2,-0.01l-2.04,0.07a2.01,2.01 0 0 0 -1.95,2.07a2.01,2.01 0 0 0 2.08,1.95l2.04,-0.07a2.01,2.01 0 0 0 0.07,-0.01c0.99,6.81 6.87,12.06 13.94,12.06c7.76,0 14.09,-6.33 14.09,-14.09s-6.33,-14.08 -14.09,-14.08zm0,4.02a10.03,10.03 0 0 1 10.07,10.06a10.03,10.03 0 0 1 -10.07,10.07a10.03,10.03 0 0 1 -10.06,-10.07a10.03,10.03 0 0 1 10.06,-10.06z"/><text fill="#636c76" font-family="ui-monospace, SFMono-Regular, 'SF Mono', Menlo, Consolas, 'Liberation Mono', monospace" font-size="22" font-weight="bold" text-anchor="middle" transform="matrix(0.754533 0 0 0.754533 0.00488212 0)" x="85.09" y="159.52">Github Actions</text></svg>