<svg xmlns="http://www.w3.org/2000/svg" xmlns:xlink="http://www.w3.org/1999/xlink" version="1.1" x="0px" y="0px" viewBox="0 0 100 100" enable-background="new 0 0 100 100" xml:space="preserve" transform="matrix(1, 0, 0, 1, 0, 0)">
    <path d="M50,5.03C25.2,5.03,5.03,25.2,5.03,50S25.2,94.97,50,94.97S94.97,74.8,94.97,50S74.8,5.03,50,5.03z M78.14,65.46  c0.15,0.21,0.16,0.47,0.04,0.68c-0.11,0.19-0.31,0.31-0.53,0.31h-0.07c-4.34-0.54-9.03-1.71-14.3-3.56  c-0.38,2.21-0.84,4.33-1.36,6.36c8.17,2.09,14.77,2.44,18.2,2.44c2.23,0,4.31-0.13,6.01-0.37C78.96,83.43,65.89,91.64,50.9,91.96  c2.29-3.48,6.83-11.24,9.75-21.97c-3.42-0.93-6.99-2.14-10.65-3.69c-3.75,1.59-7.41,2.82-10.9,3.75  c2.81,10.13,7.05,17.82,10.22,21.91c-15.08-0.24-28.25-8.47-35.45-20.64c1.7,0.24,3.78,0.37,6.01,0.37c3.39,0,9.89-0.34,17.95-2.38  c-0.53-1.98-1-4.06-1.39-6.23c-5,1.7-9.61,2.79-14.04,3.34c-0.24,0.03-0.48-0.1-0.6-0.31s-0.11-0.48,0.04-0.67  c2.71-3.54,5.89-6.97,9.62-10.35c-1.57-1.34-3.04-2.73-4.41-4.13C19.32,58.89,15,66.66,13.24,70.22c-3.32-6-5.21-12.89-5.21-20.22  c0-7.49,1.97-14.53,5.43-20.62c1.89,4.09,6.22,12.27,13.61,20.09c2.43-2.42,5.18-4.85,8.27-7.17c0.4-4.24,1.22-8.23,2.27-11.92  c-8.23-2.17-15.34-2.64-19.87-2.64c-1.3,0-2.43,0.04-3.35,0.08C21.73,16.08,34.7,8.21,49.49,8.03c-2.5,3.54-7.44,11.32-10.58,21.62  c2.03,0.57,4.12,1.24,6.25,2.03c1.14-4.78,2.66-9.39,4.55-13.79c0.11-0.24,0.37-0.39,0.59-0.37c0.25,0.02,0.46,0.17,0.54,0.41  c1.69,4.11,3.06,8.64,4.12,13.71c1.92-0.72,3.81-1.34,5.65-1.86c-2.89-10.57-7.34-18.23-9.65-21.74  c14.6,0.33,27.39,8.16,34.65,19.78c-0.92-0.04-2.05-0.08-3.35-0.08c-4.62,0-11.93,0.49-20.37,2.77c0.89,3.47,1.61,7.23,2.04,11.25  c3.39,2.49,6.39,5.1,9,7.71c7.39-7.82,11.72-16,13.61-20.09C90,35.47,91.97,42.51,91.97,50c0,7.33-1.89,14.22-5.21,20.22  C85,66.66,80.67,58.89,72.94,50.97c-1.35,1.38-2.8,2.75-4.35,4.08C72.13,58.32,75.33,61.81,78.14,65.46z" fill="#4db8b6"/>
    <path d="M35.15,51.88c-0.06-1.26-0.09-2.55-0.09-3.85c0-1.48,0.05-2.92,0.16-4.34c-2.76,2.12-5.22,4.32-7.43,6.53  c1.38,1.41,2.86,2.81,4.44,4.17C33.17,53.55,34.14,52.71,35.15,51.88z" fill="#4db8b6"/>
    <path d="M40.56,61.59c-0.79,0.31-1.56,0.59-2.33,0.87c-0.27,0.1-0.53,0.19-0.8,0.28c0.39,2.19,0.86,4.29,1.39,6.3  c3.1-0.82,6.41-1.9,9.86-3.31c-2.64-1.17-5.3-2.51-7.98-4.06C40.65,61.64,40.61,61.61,40.56,61.59z" fill="#4db8b6"/>
    <path d="M44.12,36.59c0.24-1.31,0.51-2.61,0.8-3.9c-2.15-0.8-4.26-1.47-6.3-2.04c-0.97,3.37-1.74,7-2.16,10.82  c2.01-1.46,4.16-2.87,6.47-4.2C43.33,37.04,43.73,36.81,44.12,36.59z" fill="#4db8b6"/>
    <path d="M64.38,49.95c0,0.48,0,0.96-0.02,1.44c1.19,0.96,2.34,1.95,3.46,2.95c1.57-1.34,3.03-2.72,4.39-4.12  c-2.4-2.39-5.1-4.78-8.14-7.07C64.27,45.35,64.38,47.61,64.38,49.95z" fill="#4db8b6"/>
    <path d="M57.07,37.27c2.03,1.17,3.93,2.4,5.73,3.68c-0.43-3.62-1.1-7.02-1.92-10.17c-1.86,0.53-3.77,1.15-5.72,1.88  c0.26,1.27,0.49,2.58,0.7,3.92C56.26,36.8,56.67,37.03,57.07,37.27z" fill="#49d8d8"/>
    <path d="M59.56,61.51c-0.08,0.06-0.17,0.11-0.26,0.16c-2.68,1.55-5.34,2.89-7.98,4.06c3.35,1.37,6.57,2.43,9.6,3.24  c0.53-2.04,0.99-4.19,1.37-6.44c-0.23-0.07-0.45-0.16-0.68-0.24C60.94,62.04,60.26,61.79,59.56,61.51z" fill="#4db8b6"/>
    <path d="M56.06,37.88c0.11,0.75,0.22,1.51,0.32,2.28c0.23,1.76,0.44,3.66,0.63,5.78c1.77,1.19,3.48,2.42,5.07,3.64  c0.42,0.32,0.84,0.65,1.26,0.98c0.01-0.2,0.01-0.4,0.01-0.61c0-2.63-0.14-5.17-0.39-7.63c-2-1.44-4.12-2.84-6.4-4.16  C56.39,38.06,56.23,37.97,56.06,37.88z" fill="#4db8b6"/>
    <path d="M50.01,57.47c-2.89,1.39-5.61,2.59-8.23,3.64c2.78,1.58,5.53,2.92,8.22,4.07c2.73-1.17,5.51-2.53,8.34-4.14  C55.89,60.06,53.21,58.91,50.01,57.47z" fill="#4db8b6"/>
    <path d="M37.75,49.78c1.64-1.28,3.37-2.57,5.15-3.83c0.16-1.96,0.38-3.91,0.64-5.8c0.11-0.75,0.22-1.5,0.35-2.24  c-0.15,0.08-0.3,0.16-0.45,0.25c-2.55,1.48-4.92,3.06-7.12,4.69c-0.15,1.69-0.24,3.42-0.24,5.18c0,1.02,0.02,2.04,0.06,3.04  C36.67,50.64,37.2,50.21,37.75,49.78z" fill="#49d8d8"/>
    <path d="M67.04,55c-0.88-0.81-1.79-1.59-2.71-2.34c-0.33-0.29-0.67-0.56-1.01-0.83c-0.61-0.49-1.22-0.97-1.84-1.45  c-1.64-1.26-3.4-2.52-5.23-3.74l-0.2-0.14l-0.02-0.24c-0.19-2.2-0.41-4.15-0.65-5.97c-0.13-1.03-0.28-2.05-0.43-3.04  c-0.07-0.43-0.14-0.86-0.21-1.28c-0.17-1.01-0.34-1.99-0.53-2.95c-0.07-0.35-0.14-0.69-0.21-1.03c-0.97-4.72-2.21-8.96-3.74-12.83  c-1.71,4.12-3.1,8.43-4.16,12.88c-0.08,0.34-0.16,0.68-0.23,1.02c-0.22,0.96-0.43,1.93-0.61,2.91c-0.09,0.44-0.17,0.87-0.24,1.3  c-0.18,1-0.34,2.01-0.48,3.02c-0.28,1.95-0.5,3.95-0.66,5.97l-0.02,0.23l-0.19,0.14c-1.84,1.29-3.62,2.62-5.3,3.93  c-0.74,0.58-1.47,1.16-2.17,1.74c-0.34,0.27-0.67,0.55-0.99,0.81c-0.76,0.65-1.5,1.29-2.22,1.92c-0.26,0.24-0.52,0.47-0.77,0.7  c-3.46,3.14-6.44,6.31-9.01,9.57c4.12-0.57,8.41-1.63,13.05-3.21c0.32-0.11,0.65-0.22,0.98-0.34c0.21-0.07,0.43-0.15,0.65-0.23  c0.53-0.19,1.04-0.38,1.58-0.59h0.01c0.4-0.15,0.8-0.3,1.21-0.46c2.88-1.13,5.88-2.45,9.09-4l0.21-0.1l0.22,0.09  c3.6,1.63,6.55,2.89,9.22,3.94c0.4,0.16,0.8,0.31,1.2,0.46c0.44,0.17,0.88,0.33,1.32,0.49c0.17,0.06,0.33,0.12,0.5,0.18  c0.33,0.12,0.66,0.24,0.99,0.36c4.89,1.72,9.27,2.86,13.32,3.44c-2.65-3.37-5.64-6.6-8.94-9.63C67.56,55.46,67.3,55.22,67.04,55z   M50,55.398c-3.164,0-5.729-2.565-5.729-5.729c0-3.164,2.565-5.729,5.729-5.729s5.729,2.565,5.729,5.729  C55.729,52.832,53.164,55.398,50,55.398z" fill="#49d8d8"/>
    <defs fill="#4db8b6">
</defs>
</svg>