<?xml version="1.0" encoding="UTF-8"?>
<svg xmlns="http://www.w3.org/2000/svg" version="1.1" viewBox="0 0 63.9 63.9">
  <defs>
    <style>
      .cls-1 {
        fill: #3d9191;
      }

      .cls-2 {
        fill: #4db8b6;
      }

      .cls-3 {
        fill: #4da7a6;
      }

      .cls-4 {
        fill: #5fb3b2;
      }

      .cls-5 {
        fill: #2f7a7a;
      }
    </style>
  </defs>
  <!-- Generator: Adobe Illustrator 28.6.0, SVG Export Plug-In . SVG Version: 1.2.0 Build 709)  -->
  <g>
    <g id="Layer_1">
      <g id="Layer_1-2" data-name="Layer_1">
        <path class="cls-2" d="M16.1,56.8v-10.5h3.8c.8,0,1.6.3,2.1.8.6.6,1,1.3,1,2.1s-.1,1-.4,1.4-.6.7-1.1.9h0c.5.2,1,.6,1.3,1,.3.4.5,1,.5,1.5,0,.9-.3,1.6-1,2.2s-1.4.9-2.2.8h-4.1ZM17.4,50.7h2.5c.5,0,1-.2,1.3-.5s.5-.7.5-1.2-.2-.8-.5-1.1c-.3-.3-.7-.5-1.2-.5h-2.5v3.2h0s0,0,0,0ZM17.4,55.5h2.7c.5,0,1-.2,1.3-.5s.5-.8.5-1.2-.2-.8-.5-1.2c-.4-.4-.8-.6-1.3-.5h-2.7v3.5h.1ZM26.9,57c-.8,0-1.4-.2-1.9-.7-.5-.5-.8-1.1-.8-1.8s.3-1.4,1-1.9c.6-.5,1.4-.7,2.3-.7s1.5.2,2,.5v-.2c0-.5-.2-1-.6-1.3-.4-.3-.8-.5-1.4-.5s-.7.1-1.1.3c-.3.2-.6.5-.7.8l-1.3-.5c.2-.4.5-.8,1-1.2.5-.4,1.2-.6,2-.6s1.7.3,2.3.8,1,1.3,1,2.3v4.3h-1.3v-1h0c-.6.8-1.4,1.3-2.4,1.3h-.1ZM27.1,55.8c.6,0,1.1-.2,1.5-.6.5-.4.7-1,.7-1.5-.4-.3-1-.5-1.7-.5s-1.2.2-1.5.4-.5.6-.5,1,.2.6.5.8c.3.2.7.3,1.1.3h0ZM31.9,56.8v-1.2l4.1-4.8h-4v-1.3h5.6v1.2l-4.1,4.8h4.2v1.3h-5.8ZM42,57c-1.1,0-2-.4-2.6-1.1-.7-.7-1.1-1.7-1.1-2.8s.3-2,1-2.7c.7-.8,1.5-1.2,2.5-1.2s1.9.4,2.6,1.1c.6.7,1,1.6,1,2.8v.3h-5.7c0,.7.3,1.3.7,1.7.5.4,1,.6,1.6.6,1,0,1.7-.4,2-1.3l1.2.5c-.3.6-.6,1.1-1.2,1.4-.5.5-1.2.7-2,.7h0ZM44,52.2c0-.4-.2-.8-.6-1.2-.4-.4-.9-.6-1.6-.6s-.9.2-1.3.5c-.4.3-.6.7-.7,1.3h4.2,0ZM48.1,56.8h-1.4v-10.5h1.4v10.5Z"/>
        <path class="cls-4" d="M21.5,2.1l10.6,10.6-10.6,10.6-10.6-10.6L21.5,2.1Z"/>
        <path class="cls-3" d="M10.9,12.7v10.6l10.6,10.7v-10.7l-10.6-10.6Z"/>
        <path class="cls-4" d="M42.8,2.1l10.6,10.6-10.6,10.6-10.7-10.6,10.7-10.6Z"/>
        <g>
          <path class="cls-3" d="M53.4,12.7v10.6l-10.6,10.7v-10.7l10.6-10.6Z"/>
          <path class="cls-3" d="M32.1,12.7l10.6,10.6-10.6,10.7-10.6-10.7,10.6-10.6Z"/>
        </g>
        <path class="cls-1" d="M32.1,34v10.6l-10.6-10.6v-10.7l10.6,10.7Z"/>
        <path class="cls-5" d="M32.1,34l10.6-10.6v10.6l-10.6,10.6v-10.6Z"/>
      </g>
    </g>
  </g>
</svg>