<svg width="200" height="200" xmlns="http://www.w3.org/2000/svg" version="1.1" viewBox="0.0 0.0 100.0 100.0">
 <g>
  <path d="m46.473 37.461c-0.35156 0-0.69141-0.12109-0.96484-0.34766l-5.7617-4.75c-0.64062-0.52734-0.73828-1.4727-0.21875-2.1211l19.074-23.867c0.25391-0.31641 0.625-0.51953 1.0312-0.5625 0.40234-0.042969 0.80859 0.078125 1.125 0.33984l5.7617 4.75c0.64062 0.52734 0.73828 1.4727 0.21875 2.1211l-19.078 23.867c-0.25391 0.31641-0.625 0.51953-1.0312 0.5625-0.050781 0.003906-0.10156 0.007813-0.15625 0.007813zm-3.6406-6.4883 3.418 2.8164 17.18-21.496-3.418-2.8164z"  fill="#4db8b6" stroke="#75caca" stroke-width="0.5" stroke-opacity="0.8"  />
  <path d="m38.801 40.922c-0.34375 0-0.6875-0.11719-0.96484-0.34375-0.44531-0.36719-0.64453-0.95312-0.51563-1.5195l1.9102-8.2109c0.11719-0.51172 0.49609-0.92578 0.99219-1.0938 0.5-0.16797 1.0469-0.066406 1.4531 0.26562l5.7617 4.75c0.40625 0.33203 0.60938 0.85156 0.53906 1.375-0.070312 0.51953-0.40234 0.96875-0.88281 1.1836l-7.6719 3.4609c-0.19531 0.089844-0.40625 0.13281-0.62109 0.13281zm2.8359-7-0.66016 2.832 2.6484-1.1953z"  fill="#4db8b6" stroke="#75caca" stroke-width="0.5" stroke-opacity="0.8"  />
  <path d="m65.551 13.59c-0.35156 0-0.69141-0.12109-0.96484-0.34766l-5.7617-4.75c-0.64453-0.53125-0.73828-1.4883-0.20703-2.1367l3.2031-3.8984c0.49609-0.60156 1.1953-0.97656 1.9688-1.0508 0.77734-0.074219 1.5352 0.15625 2.1367 0.65234l3.6055 2.9727c1.2383 1.0234 1.418 2.8633 0.39844 4.1055l-3.2031 3.8984c-0.25391 0.3125-0.625 0.50781-1.0273 0.54688-0.050781 0.003907-0.097657 0.007813-0.14844 0.007813zm-3.625-6.4766 3.418 2.8164 2.1602-2.6328-3.418-2.8164z"  fill="#4db8b6" stroke="#75caca" stroke-width="0.5" stroke-opacity="0.8"  />
  <path d="m72.996 75.898h-45.992c-1.5586 0-2.8281-1.2695-2.8281-2.832v-50.07c0-1.5625 1.2695-2.832 2.8281-2.832h21.309c0.83984 0 1.5195 0.67969 1.5195 1.5195s-0.67969 1.5195-1.5195 1.5195h-21.102v49.66h45.574l0.003906-49.66h-14.922c-0.83984 0-1.5195-0.67969-1.5195-1.5195s0.67969-1.5195 1.5195-1.5195h15.129c1.5586 0 2.8281 1.2695 2.8281 2.832v50.07c0 1.5625-1.2695 2.832-2.8281 2.832zm0-52.695z"  fill="#4db8b6" stroke="#75caca" stroke-width="0.5" stroke-opacity="0.8"  />
  <path d="m46.109 49.398h-13.309c-0.83984 0-1.5195-0.67969-1.5195-1.5195l0.003906-16.535c0-0.83984 0.67969-1.5195 1.5195-1.5195h8.0938c0.83984 0 1.5195 0.67969 1.5195 1.5195s-0.67969 1.5195-1.5195 1.5195h-6.5781v13.496h10.27v-10.719c0-0.83984 0.67969-1.5195 1.5195-1.5195s1.5195 0.67969 1.5195 1.5195v12.238c0 0.83984-0.67969 1.5195-1.5195 1.5195z"  fill="#4db8b6" stroke="#75caca" stroke-width="0.5" stroke-opacity="0.8"  />
  <path d="m67.199 32.863h-9.2031c-0.83984 0-1.5195-0.67969-1.5195-1.5195s0.67969-1.5195 1.5195-1.5195h9.1992c0.83984 0 1.5195 0.67969 1.5195 1.5195s-0.67969 1.5195-1.5156 1.5195z"  fill="#4db8b6" stroke="#75caca" stroke-width="0.5" stroke-opacity="0.8"  />
  <path d="m67.199 49.398h-13.926c-0.83984 0-1.5195-0.67969-1.5195-1.5195s0.67969-1.5195 1.5195-1.5195h13.926c0.83984 0 1.5195 0.67969 1.5195 1.5195-0.003906 0.83594-0.68359 1.5195-1.5195 1.5195z"  fill="#4db8b6" stroke="#75caca" stroke-width="0.5" stroke-opacity="0.8"  />
  <path d="m67.199 41.129h-13.926c-0.83984 0-1.5195-0.67969-1.5195-1.5195s0.67969-1.5195 1.5195-1.5195h13.926c0.83984 0 1.5195 0.67969 1.5195 1.5195-0.003906 0.83984-0.68359 1.5195-1.5195 1.5195z"  fill="#4db8b6" stroke="#75caca" stroke-width="0.5" stroke-opacity="0.8"  />
  <path d="m67.199 57.969h-34.398c-0.83984 0-1.5195-0.67969-1.5195-1.5195 0-0.83984 0.67969-1.5195 1.5195-1.5195h34.395c0.83984 0 1.5195 0.67969 1.5195 1.5195 0 0.83984-0.67969 1.5195-1.5156 1.5195z"  fill="#4db8b6" stroke="#75caca" stroke-width="0.5" stroke-opacity="0.8"  />
  <path d="m67.199 66.238h-34.398c-0.83984 0-1.5195-0.67969-1.5195-1.5195s0.67969-1.5195 1.5195-1.5195h34.395c0.83984 0 1.5195 0.67969 1.5195 1.5195 0 0.83594-0.67969 1.5195-1.5156 1.5195z"  fill="#4db8b6" stroke="#75caca" stroke-width="0.5" stroke-opacity="0.8"  />
  <path d="m87.434 86.176h-74.867c-0.83984 0-1.5195-0.67969-1.5195-1.5195v-46.984c0-2.5312 2.0547-4.5898 4.582-4.5898h10.062c0.83984 0 1.5195 0.67969 1.5195 1.5195 0 0.83984-0.67969 1.5195-1.5195 1.5195h-10.059c-0.85156 0-1.543 0.69531-1.543 1.5508v45.465h71.828l-0.003907-45.465c0-0.85547-0.69141-1.5508-1.543-1.5508h-10.062c-0.83984 0-1.5195-0.67969-1.5195-1.5195 0-0.83984 0.67969-1.5195 1.5195-1.5195h10.062c2.5273 0 4.582 2.0586 4.582 4.5898v46.984c0 0.83984-0.67969 1.5195-1.5195 1.5195z"  fill="#4db8b6" stroke="#75caca" stroke-width="0.5" stroke-opacity="0.8"  />
  <path d="m18.457 86.176c-0.83984 0-1.5195-0.67969-1.5195-1.5195v-44.152c0-0.83984 0.67969-1.5195 1.5195-1.5195h7.2344c0.83984 0 1.5195 0.67969 1.5195 1.5195s-0.67969 1.5195-1.5195 1.5195h-5.7148v42.633c0 0.83984-0.67969 1.5195-1.5195 1.5195z"  fill="#4db8b6" stroke="#75caca" stroke-width="0.5" stroke-opacity="0.8"  />
  <path d="m81.543 86.176c-0.83984 0-1.5195-0.67969-1.5195-1.5195v-42.633h-5.7148c-0.83984 0-1.5195-0.67969-1.5195-1.5195s0.67969-1.5195 1.5195-1.5195h7.2344c0.83984 0 1.5195 0.67969 1.5195 1.5195v44.152c0 0.83984-0.67969 1.5195-1.5195 1.5195z"  fill="#4db8b6" stroke="#75caca" stroke-width="0.5" stroke-opacity="0.8"  />
  <path d="m88.32 98.609h-76.641c-4.168 0-7.5586-3.3906-7.5586-7.5586v-6.3945c0-0.83984 0.67969-1.5195 1.5195-1.5195h88.723c0.83984 0 1.5195 0.67969 1.5195 1.5195v6.3945c-0.003906 4.168-3.3945 7.5586-7.5625 7.5586zm-81.16-12.434v4.875c0 2.4922 2.0273 4.5195 4.5195 4.5195h76.645c2.4922 0 4.5195-2.0273 4.5195-4.5195v-4.875z"  fill="#4db8b6" stroke="#75caca" stroke-width="0.5" stroke-opacity="0.8"  />
  <path d="m55.969 92.328h-11.938c-1.9102 0-3.3516-1.3594-3.3516-3.1641v-4.5078c0-0.83984 0.67969-1.5195 1.5195-1.5195 0.83984 0 1.5195 0.67969 1.5195 1.5195v4.5078c0 0.03125 0.003906 0.046876 0.003906 0.050782 0.011719 0.011718 0.10547 0.074218 0.30859 0.074218h11.938c0.19922 0 0.29688-0.066406 0.30859-0.082031 0 0 0.003906-0.015625 0.003906-0.046875v-4.5078c0-0.83984 0.67969-1.5195 1.5195-1.5195 0.83984 0 1.5195 0.67969 1.5195 1.5195v4.5078c0 1.8086-1.4414 3.168-3.3516 3.168z"  fill="#4db8b6" stroke="#75caca" stroke-width="0.5" stroke-opacity="0.8"  />
 </g></svg>