<?xml version="1.0" encoding="utf-8"?>
<svg viewBox="75.76 -56.38 1028 1028" xmlns="http://www.w3.org/2000/svg">
  <defs>
    <style>@import url(https://fonts.googleapis.com/css2?family=Montserrat%3Aital%2Cwght%400%2C100..900%3B1%2C100..900&amp;display=swap);</style>
  </defs>
  <g transform="matrix(1, 0, 0, 1, 514.0000076591969, 514.0000076591969)" id="a4c02a67-c92c-48a7-9be9-3fbdcd3d9dd8"/>
  <g transform="matrix(7.710633754730224, 0, 0, 9.418426513671875, 535.5009845420864, 545.62879231019)" style="">
    <path style="stroke: none; stroke-width: 1; stroke-dasharray: none; stroke-linecap: butt; stroke-dashoffset: 0; stroke-linejoin: miter; stroke-miterlimit: 4; fill: rgb(77,184,182); fill-rule: nonzero; opacity: 5;" vector-effect="non-scaling-stroke" transform=" translate(-60.13, -49.23)" d="M 29.13 34.23 C 29.13 34.23 103.44 33.43 103.44 33.43 C 103.44 33.43 101.34 65.23 101.34 65.23 C 101.34 65.23 23.430000000000007 65.83 23.430000000000007 65.83 C 23.430000000000007 65.83 20.430000000000007 32.629999999999995 20.430000000000007 32.629999999999995 C 20.430000000000007 32.629999999999995 16.830000000000005 50.029999999999994 16.830000000000005 50.029999999999994" stroke-linecap="round"/>
  </g>
  <g transform="matrix(7.910074234008788, 0, 0, 7.910074234008788, 66.7329721858049, 373.4016779273997)" style="">
    <path style="stroke: none; stroke-width: 1; stroke-dasharray: none; stroke-linecap: butt; stroke-dashoffset: 0; stroke-linejoin: miter; stroke-miterlimit: 4; fill: rgb(77,184,182); fill-rule: nonzero; opacity: 5;" vector-effect="non-scaling-stroke" d="M 3.603 24.413 L 3.603 26.543 C 3.603 37.053 14.973 47.693 28.983 47.693 L 103.753 47.693 C 117.763 47.693 129.133 37.053 129.133 26.543 L 129.133 24.413 C 129.133 14.663 119.283 2.373 106.643 1.293 C 106.353 -7.437 99.183 -14.427 90.383 -14.427 C 86.983 -14.427 83.813 -13.377 81.173 -11.567 C 76.153 -22.747 64.973 -30.557 51.923 -30.557 C 34.203 -30.557 19.843 -16.197 19.843 1.523 C 19.843 1.843 19.873 2.163 19.873 2.443 C 10.373 5.203 3.613 16.353 3.613 24.423 L 3.603 24.413 Z M 43.943 34.133 L 42.133 26.893 L 33.493 26.893 L 31.583 34.133 L 26.693 34.133 L 35.043 4.663 L 41.073 4.663 L 48.853 34.133 L 43.933 34.133 L 43.943 34.133 Z M 72.563 34.133 L 67.133 34.133 L 63.323 11.903 L 63.223 11.903 L 59.473 34.133 L 54.043 34.133 L 48.323 4.663 L 53.083 4.663 L 56.953 27.563 L 57.013 27.563 L 60.923 4.663 L 65.873 4.663 L 69.813 27.693 L 69.913 27.693 L 73.753 4.663 L 78.423 4.663 L 72.543 34.133 L 72.563 34.133 Z M 89.843 34.703 C 82.503 34.703 80.883 29.843 80.883 25.713 L 80.883 24.983 L 85.583 24.983 L 85.583 25.743 C 85.583 29.333 87.143 31.143 90.413 31.143 C 93.363 31.143 94.863 29.043 94.863 26.853 C 94.863 23.743 93.303 22.373 90.673 21.613 L 87.433 20.503 C 83.143 18.853 81.273 16.633 81.273 12.403 C 81.273 7.033 84.923 4.053 90.453 4.053 C 98.013 4.053 98.803 8.753 98.803 11.833 L 98.803 12.473 L 94.073 12.473 L 94.073 11.873 C 94.073 9.173 92.893 7.613 89.943 7.613 C 87.943 7.613 86.003 8.723 86.003 11.873 C 86.003 14.383 87.273 15.653 90.413 16.863 L 93.593 18.043 C 97.753 19.503 99.563 21.793 99.563 25.823 C 99.593 32.113 95.783 34.713 89.843 34.713 L 89.843 34.703 Z" stroke-linecap="round"/>
  </g>
  <g transform="matrix(3.7835650444030757, 0, 0, 3.7835650444030757, 499.1736829753768, 461.15839310226414)" style="">
    <path style="stroke: none; stroke-width: 1; stroke-dasharray: none; stroke-linecap: butt; stroke-dashoffset: 0; stroke-linejoin: miter; stroke-miterlimit: 4; fill: rgb(29,31,48); fill-rule: nonzero; opacity: 1;" vector-effect="non-scaling-stroke" transform=" translate(-64, -64)" d="M 49.33 62 L 78.49 62 C 86.61 62 93 55.13 93 46.980000000000004 L 93 19.180000000000003 C 93 11.270000000000003 86.37 5.330000000000004 78.44 4.010000000000003 C 73.42999999999999 3.1700000000000035 68.25 2.7900000000000036 63.26 2.8200000000000034 C 58.269999999999996 2.8400000000000034 53.65 3.2600000000000033 49.449999999999996 4.010000000000003 C 37.099999999999994 6.190000000000003 35 10.760000000000003 35 19.180000000000003 L 35 30.000000000000004 L 64 30.000000000000004 L 64 34 L 23.78 34 C 15.290000000000001 34 7.860000000000001 39.11 5.540000000000003 48.81 C 2.8600000000000025 59.93 2.740000000000003 66.73 5.540000000000003 78.34 C 7.610000000000003 86.98 12.570000000000004 93 21.050000000000004 93 L 31.000000000000004 93 L 31.000000000000004 79.95 C 31.000000000000004 70.31 39.43000000000001 62 49.33 62 z M 47.489999999999995 22.89 C 44.46999999999999 22.89 42.00999999999999 20.41 42.00999999999999 17.34 C 42.00999999999999 14.27 44.459999999999994 11.76 47.489999999999995 11.76 C 50.51 11.76 52.97 14.27 52.97 17.34 C 52.97 20.41 50.51 22.89 47.489999999999995 22.89 z M 122.28 48.81 C 120.18 40.36 116.18 34 107.68 34 L 97 34 L 97 46.980000000000004 C 97 57.03 88.21000000000001 65 78.49 65 L 49.33 65 C 41.339999999999996 65 35 72.33 35 80.33 L 35 108.13 C 35 116.03999999999999 41.74 120.69 49.46 122.96 C 58.7 125.67999999999999 67.46000000000001 126.16999999999999 78.51 122.96 C 85.86 120.83 93 116.55 93 108.13 L 93 97 L 64 97 L 64 93 L 107.68 93 C 116.17 93 119.33000000000001 87.22 122.28 78.34 C 125.33 69.2 125.2 60.540000000000006 122.28 48.81 z M 80.33 104.42 C 83.35 104.42 85.81 106.9 85.81 109.96000000000001 C 85.81 113.04 83.35000000000001 115.54 80.33 115.54 C 77.31 115.54 74.85 113.04 74.85 109.96000000000001 C 74.85 106.9 77.30999999999999 104.42 80.33 104.42 z" stroke-linecap="round"/>
  </g>
  <path fill="#1d1f30" d="M 959.516 617.322 L 959.516 641.694 C 959.516 660.781 920.823 676.27 876.395 676.27 C 831.975 676.27 793.273 660.781 793.273 641.694 L 793.273 617.322 C 813.372 634.554 851.5 639.691 876.395 639.691 C 901.38 639.691 939.467 634.505 959.516 617.322 Z M 876.395 583.519 C 851.408 583.519 813.322 578.333 793.273 561.149 L 793.273 585.284 C 793.273 604.381 831.975 619.86 876.395 619.86 C 920.823 619.86 959.516 604.371 959.516 585.284 L 959.516 561.149 C 939.417 578.382 901.289 583.519 876.395 583.519 Z M 876.395 438.293 C 831.975 438.293 793.273 453.782 793.273 472.879 C 793.273 491.977 831.975 507.456 876.395 507.456 C 920.823 507.456 959.516 491.967 959.516 472.879 C 959.516 453.782 920.823 438.293 876.395 438.293 Z M 876.395 527.287 C 851.408 527.287 813.322 522.101 793.273 504.916 L 793.273 529.111 C 793.273 548.209 831.975 563.687 876.395 563.687 C 920.823 563.687 959.516 548.199 959.516 529.111 L 959.516 504.916 C 939.417 522.15 901.289 527.287 876.395 527.287 Z" style="" transform="matrix(1, 0, 0, 1, -1.1368683772161603e-13, 0)"/>
  <text style="fill: rgb(29, 31, 48); font-family: Montserrat; font-size: 65px; font-weight: 900; text-transform: capitalize; white-space: pre;" x="213.683" y="842.072" transform="matrix(1, 0, 0, 1, -1.1368683772161603e-13, 0)">Vishwas Kumar</text>
</svg>
